<?xml version="1.0" standalone="no"?>
<!DOCTYPE svg PUBLIC "-//W3C//DTD SVG 20010904//EN"
 "http://www.w3.org/TR/2001/REC-SVG-20010904/DTD/svg10.dtd">
<svg version="1.0" xmlns="http://www.w3.org/2000/svg"
 width="1150.000000pt" height="2048.000000pt" viewBox="0 0 1150.000000 2048.000000"
 preserveAspectRatio="xMidYMid meet">

<g transform="translate(0.000000,2048.000000) scale(0.100000,-0.100000)"
fill="#000000" stroke="none">
<path d="M0 10240 l0 -10240 5750 0 5750 0 0 10240 0 10240 -5750 0 -5750 0 0
-10240z m6520 4429 c74 -17 176 -39 225 -50 88 -20 241 -66 301 -90 16 -6 38
-15 49 -19 52 -21 95 -41 100 -49 3 -5 18 -12 34 -16 16 -3 37 -15 47 -26 9
-10 22 -19 29 -19 9 0 136 -97 155 -119 3 -4 30 -25 61 -48 65 -50 138 -126
159 -167 8 -16 29 -39 46 -53 38 -28 53 -81 80 -283 2 -14 8 -74 14 -134 6
-60 12 -112 14 -115 2 -3 7 -51 10 -106 10 -153 15 -204 31 -275 8 -36 21
-168 30 -295 8 -126 21 -268 27 -315 6 -51 8 -120 4 -172 l-8 -86 -34 -7 c-24
-4 -53 -24 -95 -66 -32 -32 -63 -59 -68 -59 -4 0 -11 55 -15 123 -4 67 -9 163
-12 212 -2 50 -11 119 -19 155 -9 36 -17 74 -19 85 -1 11 -5 27 -8 35 -3 8
-13 42 -22 75 -52 196 -70 282 -77 380 -5 61 -10 124 -12 140 -3 17 -7 59 -11
95 -8 81 -53 295 -71 335 -7 17 -23 62 -35 100 -41 132 -68 175 -113 175 -16
0 -44 9 -62 20 -87 54 -396 126 -620 145 -44 4 -93 8 -110 10 -90 10 -895 -1
-995 -13 -47 -6 -130 -16 -185 -22 -240 -26 -270 -32 -322 -58 -29 -15 -53
-30 -53 -34 0 -5 -6 -8 -14 -8 -7 0 -20 -7 -27 -17 -8 -9 -27 -24 -43 -34 -45
-28 -142 -126 -201 -204 -71 -95 -112 -170 -134 -246 -10 -35 -33 -113 -50
-172 -18 -60 -36 -134 -41 -164 -5 -30 -20 -78 -33 -106 -43 -91 -89 -237
-102 -320 -3 -16 -12 -49 -20 -74 -8 -24 -20 -75 -26 -111 -35 -224 -33 -217
-59 -217 -14 0 -56 6 -95 12 -38 7 -82 13 -97 13 -37 0 -39 8 -22 71 23 86 62
279 69 344 9 82 35 224 46 255 5 14 14 50 19 80 58 344 140 623 205 700 6 8
51 92 99 185 74 144 190 325 201 313 2 -2 -4 -28 -12 -58 -8 -30 -17 -68 -20
-85 -5 -28 -4 -29 9 -10 8 11 28 53 44 94 29 73 58 111 138 179 111 94 155 99
93 9 -33 -47 -11 -42 42 11 68 68 104 93 121 82 11 -7 7 -16 -19 -42 -40 -41
-27 -46 38 -14 28 14 56 26 63 26 7 0 25 6 40 14 15 8 40 17 56 21 17 3 47 15
68 26 21 10 49 19 62 19 13 0 31 4 41 9 18 10 238 42 281 41 14 -1 70 -1 125
-1 55 1 136 -4 180 -9 113 -14 192 -11 199 6 8 20 36 17 111 -10 63 -23 83
-20 47 6 -10 7 -22 19 -26 27 -10 15 -8 15 194 -30z m100 -524 c88 -5 187 -23
295 -51 50 -13 99 -26 109 -29 49 -12 94 -28 127 -45 20 -11 38 -17 41 -15 3
3 29 -7 58 -22 42 -22 60 -39 81 -78 48 -87 107 -290 159 -545 18 -86 21 -123
15 -207 -5 -87 -3 -112 15 -175 12 -40 30 -89 40 -108 10 -19 25 -70 35 -112
9 -42 20 -78 24 -80 11 -4 50 -255 58 -373 7 -99 7 -113 4 -169 -1 -31 7 -30
-106 -12 -11 2 -39 4 -62 5 -28 1 -51 9 -71 26 -50 42 -121 71 -262 108 -247
64 -282 69 -469 72 -232 5 -370 -21 -433 -82 -27 -25 -28 -26 -135 -19 -59 3
-155 11 -213 16 -58 5 -168 13 -245 16 l-140 6 -35 33 c-54 49 -91 72 -172
104 -135 54 -238 70 -483 73 l-220 3 -58 -27 c-32 -15 -77 -42 -100 -60 -23
-18 -49 -33 -57 -32 -8 1 -41 2 -73 3 l-58 1 7 63 c3 34 19 103 34 152 15 50
31 101 34 115 15 59 56 208 66 244 6 21 20 54 31 72 42 76 71 162 94 278 32
169 31 165 54 228 35 100 96 221 145 285 56 74 157 169 203 191 18 9 33 19 33
23 0 19 74 50 141 59 111 16 120 18 174 29 28 5 106 13 175 16 69 4 139 9 155
11 17 3 118 7 225 10 107 3 200 7 205 9 11 5 451 -4 555 -10z m-2642 -1794
c20 -11 70 -51 110 -90 39 -38 72 -67 72 -64 0 11 -60 100 -80 118 -26 24 -27
50 -2 36 10 -5 46 -12 80 -15 34 -2 66 -7 72 -11 5 -3 10 -24 10 -46 0 -54 26
-53 35 1 7 43 1 41 80 25 32 -7 31 -13 -3 -50 -53 -59 -65 -100 -68 -230 -3
-127 23 -333 54 -432 15 -49 15 -55 -1 -88 -18 -37 -23 -85 -9 -85 5 0 16 16
25 35 18 37 34 45 44 19 3 -9 -5 -26 -20 -42 -33 -35 -57 -92 -57 -137 0 -38
15 -47 25 -16 6 19 93 106 100 99 10 -10 -10 -58 -26 -63 -23 -7 -26 -35 -4
-35 8 0 15 7 15 15 0 8 9 19 19 25 26 14 31 13 25 -4 -4 -11 5 -17 33 -21 21
-4 52 -12 68 -19 106 -45 151 -49 305 -30 196 24 266 42 353 91 71 40 84 44
140 42 34 -1 67 -6 74 -11 7 -6 18 -8 25 -5 16 5 -50 47 -75 47 -29 0 -16 33
20 50 17 8 34 24 37 34 4 16 8 17 20 7 22 -18 46 -6 46 22 0 18 5 23 28 22 22
0 28 5 30 28 3 21 9 27 27 27 27 0 36 17 23 43 -8 15 -4 24 13 40 13 12 26 21
29 19 3 -2 10 4 15 14 6 10 16 24 22 32 9 9 10 19 3 31 -10 20 21 126 43 147
24 23 136 54 181 50 57 -6 78 -17 143 -79 54 -51 64 -74 68 -162 4 -88 4 -88
25 -82 11 3 20 2 20 -1 0 -13 -15 -27 -27 -27 -7 0 -13 -3 -13 -7 0 -5 0 -12
0 -18 0 -5 7 -10 15 -10 18 0 19 -12 3 -28 -9 -10 -8 -16 5 -29 16 -16 17 -16
17 10 0 18 5 27 16 27 12 0 15 -8 12 -32 -2 -26 1 -32 13 -30 9 1 22 -5 30
-14 10 -13 10 -17 -1 -24 -18 -11 -4 -42 17 -38 23 3 43 -9 43 -28 0 -9 -10
-14 -27 -14 -31 0 -60 -15 -47 -23 5 -2 35 -4 66 -2 41 2 58 -1 62 -11 4 -10
-5 -14 -33 -14 -47 0 -71 -8 -71 -24 0 -7 25 -11 73 -11 66 0 77 -3 127 -35
30 -20 73 -44 95 -54 22 -10 65 -33 96 -51 31 -18 71 -36 90 -40 18 -4 46 -15
63 -24 79 -45 234 -55 329 -22 l56 19 25 -31 25 -32 1 43 c0 23 5 42 11 42 16
0 69 -64 90 -107 l17 -38 1 53 c1 34 -6 66 -19 92 -25 48 -25 49 0 43 10 -3
22 -14 25 -24 13 -40 26 -17 23 40 -3 49 -1 58 12 53 28 -10 43 -27 62 -69 10
-24 22 -43 25 -43 12 0 -9 117 -27 153 -24 45 -25 51 -5 43 8 -3 15 -1 15 3 0
5 -5 11 -10 13 -6 2 5 28 25 57 61 96 95 232 95 386 0 85 -22 189 -45 215 -7
8 -16 27 -20 42 -7 27 -7 27 42 24 26 -2 63 -4 81 -5 28 -1 33 -5 39 -31 3
-16 8 -30 12 -30 3 0 29 29 56 64 63 81 116 110 184 100 57 -8 77 -18 119 -57
40 -39 49 -72 57 -212 16 -276 9 -380 -31 -464 -14 -31 -48 -101 -74 -156 -26
-55 -60 -128 -76 -162 -15 -35 -30 -63 -34 -63 -6 0 -24 -38 -59 -125 -46
-117 -72 -162 -128 -216 -50 -49 -90 -79 -106 -79 -2 0 -7 37 -11 83 -8 103
-26 197 -37 197 -5 0 -9 -17 -9 -37 0 -67 -39 -379 -54 -434 -27 -98 -46 -152
-61 -176 -8 -12 -15 -27 -15 -33 0 -18 -51 -121 -82 -167 -15 -23 -28 -44 -28
-48 0 -11 -206 -304 -230 -325 -3 -3 -23 -32 -45 -65 -22 -33 -49 -70 -60 -83
-31 -37 -195 -197 -205 -200 -9 -3 37 88 50 98 9 7 127 251 135 278 3 12 4 22
1 22 -8 0 -64 -86 -71 -112 -17 -52 -152 -306 -181 -339 -8 -8 -14 -18 -14
-22 0 -3 -21 -41 -47 -84 -129 -216 -291 -343 -558 -439 -72 -26 -92 -29 -205
-29 -123 0 -268 19 -395 52 -61 16 -267 110 -273 125 -2 4 -9 8 -15 8 -30 1
-153 120 -202 195 -57 88 -125 209 -125 222 0 6 -9 27 -19 45 -11 18 -27 56
-36 83 -18 56 -15 50 -85 205 -29 63 -53 120 -54 125 -1 6 -4 15 -8 20 -3 6
-9 26 -13 45 -3 19 -22 87 -40 150 -30 101 -42 168 -60 325 -2 22 -9 67 -15
100 -19 116 -33 286 -27 340 4 39 2 57 -8 65 -11 9 -16 6 -22 -17 -9 -37 -10
-300 0 -443 8 -123 10 -136 52 -275 15 -49 33 -115 41 -145 36 -140 65 -218
134 -365 49 -105 70 -154 70 -167 0 -20 -142 131 -223 237 -41 55 -90 116
-107 135 -17 19 -47 64 -67 100 -20 36 -42 72 -48 80 -21 25 -75 196 -96 300
-6 30 -15 100 -19 155 -5 55 -14 132 -20 170 -6 39 -12 159 -13 267 -1 109 -5
198 -9 198 -6 0 -23 -67 -33 -137 -6 -38 -10 -43 -32 -43 -26 0 -61 32 -134
121 -42 52 -50 64 -85 144 -45 102 -84 209 -84 230 -1 28 -33 145 -48 172 -32
57 -42 159 -32 313 6 83 17 182 25 221 8 39 15 80 15 92 1 12 9 40 20 62 11
22 19 47 20 56 0 8 16 34 36 57 41 49 72 54 132 23z m1843 -180 c100 -12 209
-21 265 -21 48 0 81 -20 68 -41 -12 -19 -33 -98 -34 -126 0 -30 -6 -29 -47 7
-18 17 -57 42 -85 56 -44 22 -61 26 -109 21 -32 -3 -78 -15 -103 -28 -25 -12
-48 -20 -51 -17 -4 4 -45 154 -45 166 0 2 13 2 28 -1 16 -3 66 -10 113 -16z
m-1439 -2419 c12 -16 33 -42 45 -58 51 -68 86 -114 152 -204 38 -52 75 -100
81 -107 5 -7 10 -15 10 -19 0 -3 17 -28 38 -54 20 -26 44 -58 52 -71 42 -64
220 -242 365 -364 24 -20 63 -81 67 -105 3 -14 17 -76 32 -139 19 -82 23 -118
15 -125 -11 -12 -49 26 -49 49 0 36 -58 133 -108 182 -33 32 -36 33 -125 33
-85 0 -94 -2 -156 -36 -36 -20 -79 -47 -96 -60 -16 -13 -34 -28 -40 -32 -13
-9 -115 -92 -140 -114 -100 -85 -230 -172 -315 -210 -160 -72 -174 -72 -149 4
15 46 16 89 10 640 -2 163 -1 300 2 305 3 4 8 35 11 68 7 65 23 148 35 180 27
70 65 138 105 192 40 53 52 62 84 66 20 2 40 4 44 5 3 1 17 -11 30 -26z m2808
-172 c30 -16 102 -143 129 -228 33 -102 45 -266 29 -387 -20 -149 -13 -583 10
-619 3 -6 7 -17 8 -26 13 -78 72 -302 84 -314 15 -15 12 -56 -4 -56 -30 0
-176 83 -176 100 0 5 -9 12 -21 15 -11 4 -41 27 -67 51 -25 24 -48 44 -51 44
-20 1 -234 215 -284 284 -106 147 -135 182 -172 208 -37 27 -45 28 -125 25
-67 -2 -98 -9 -144 -30 -100 -46 -221 -32 -163 20 12 11 31 26 43 34 78 52
420 390 492 486 20 27 42 56 49 64 7 7 59 70 115 139 57 69 112 136 123 149
20 23 68 50 93 51 7 0 22 -4 32 -10z m-939 -1122 c4 -171 2 -228 -9 -228 -13
0 -237 218 -230 225 3 3 16 7 29 9 25 3 95 21 139 36 14 4 35 8 48 9 20 1 22
-4 23 -51z m-266 -30 c102 -104 235 -228 244 -228 6 0 11 -11 11 -25 0 -14 -5
-25 -11 -25 -17 0 -187 146 -266 229 -32 34 -40 48 -31 58 15 18 27 16 53 -9z
m-59 -54 c67 -77 72 -82 244 -228 58 -50 72 -78 57 -113 -11 -26 -21 -30 -107
-50 -117 -26 -234 -41 -251 -32 -9 5 -43 45 -75 89 -32 44 -62 80 -66 80 -4 0
-8 6 -8 13 0 6 -10 23 -21 37 -53 67 -146 217 -138 225 3 3 41 8 85 10 43 3
102 10 129 14 95 16 98 15 151 -45z m-478 12 c6 -3 27 -39 47 -79 21 -39 45
-81 55 -92 10 -11 23 -31 30 -45 15 -28 122 -171 157 -210 30 -32 21 -36 -102
-45 l-100 -7 -43 38 c-114 98 -174 219 -188 377 l-7 78 70 -4 c38 -2 75 -7 81
-11z m82 -15 c0 -23 155 -254 237 -354 62 -76 71 -106 18 -64 -49 39 -183 226
-265 371 -26 46 -30 60 -19 66 17 11 29 3 29 -19z m694 -528 c16 -38 43 -99
61 -138 19 -38 43 -99 56 -135 12 -36 32 -93 45 -127 12 -34 20 -64 17 -66 -3
-3 -30 5 -61 18 -133 54 -316 110 -477 144 -27 6 -81 17 -120 25 -38 9 -101
20 -139 26 -38 6 -73 13 -78 16 -13 8 -9 128 5 147 7 9 33 19 62 22 28 3 88
14 135 25 47 11 119 27 160 36 41 8 89 20 106 25 17 5 39 9 50 10 10 0 44 9
74 19 30 10 60 19 65 19 6 1 23 -29 39 -66z m1014 -105 c57 -15 73 -50 61
-134 -7 -44 -16 -65 -35 -82 -25 -22 -26 -24 -9 -42 15 -17 17 -31 12 -87 -13
-135 -46 -180 -134 -178 -198 4 -198 4 -183 66 13 56 70 354 74 394 2 17 9 42
14 56 10 25 13 26 84 22 40 -2 92 -9 116 -15z m2367 -8 c-3 -5 -11 -10 -16
-10 -6 0 -7 5 -4 10 3 6 11 10 16 10 6 0 7 -4 4 -10z m55 6 c0 -11 -19 -15
-25 -6 -3 5 1 10 9 10 9 0 16 -2 16 -4z m55 -33 c37 -41 30 -50 -10 -12 -38
36 -40 39 -25 39 5 0 21 -12 35 -27z m-1913 12 c3 -3 1 -26 -5 -50 -12 -54 -7
-62 31 -46 24 10 36 10 66 -3 20 -8 36 -21 37 -28 0 -7 2 -24 3 -37 2 -14 -3
-54 -11 -90 -7 -36 -15 -82 -17 -101 -2 -19 -9 -68 -16 -107 l-13 -73 -54 0
c-29 0 -56 1 -60 3 -11 3 -9 23 20 197 17 98 23 158 17 164 -16 16 -36 -51
-54 -184 -10 -69 -23 -136 -29 -150 -11 -23 -17 -25 -67 -21 -30 1 -56 4 -56
5 -1 0 2 21 6 46 4 25 13 79 19 120 7 41 15 86 17 100 23 121 44 237 44 248 0
8 18 12 58 12 32 0 61 -2 64 -5z m1752 -26 c-14 -15 -18 -33 -16 -72 1 -37 -1
-48 -8 -37 -18 28 -12 98 11 121 26 26 39 16 13 -12z m-1120 -7 c2 -4 0 -27
-4 -52 -9 -49 -6 -60 12 -42 7 7 29 12 49 12 29 0 43 -6 59 -27 22 -28 22 -51
0 -168 -5 -27 -14 -88 -19 -134 -9 -70 -15 -88 -37 -108 -34 -32 -85 -41 -107
-19 -18 18 -37 21 -37 5 0 -7 -20 -9 -57 -7 -42 4 -58 8 -57 19 1 8 9 57 17
109 9 52 21 136 27 185 12 94 29 201 36 223 4 13 109 18 118 4z m1240 -15 c14
-11 15 -17 6 -42 -6 -15 -9 -34 -6 -42 3 -7 1 -13 -4 -13 -5 0 -12 11 -16 24
-4 19 -11 23 -34 20 -28 -3 -28 -2 -19 29 5 17 9 33 9 34 0 9 49 1 64 -10z
m-2107 -44 c12 -8 25 -24 29 -36 7 -22 7 -124 0 -135 -6 -11 -36 -189 -36
-217 0 -19 -8 -28 -27 -36 -25 -9 -100 -6 -111 5 -2 3 -15 0 -29 -5 -31 -12
-88 5 -97 27 -11 29 -6 114 8 149 12 27 27 40 70 60 30 14 59 25 65 25 17 0
41 43 41 72 0 16 -4 28 -10 28 -14 0 -30 -35 -30 -64 0 -25 -3 -26 -53 -26
-30 0 -56 2 -59 5 -3 3 -1 27 3 53 12 64 62 110 128 115 54 4 78 -1 108 -20z
m1451 13 c3 -3 -1 -12 -8 -21 -9 -11 -9 -15 -1 -15 6 0 14 7 17 15 13 33 20
12 16 -42 -4 -56 -4 -57 14 -42 11 9 30 15 44 13 14 -2 31 -5 37 -6 7 -1 15
-10 19 -20 3 -10 10 -18 16 -18 6 0 8 -12 4 -32 -4 -18 -6 -48 -6 -65 0 -18
-3 -33 -7 -33 -4 0 -9 -21 -9 -47 -1 -27 -4 -66 -7 -88 -3 -22 -6 -48 -6 -58
-1 -10 -5 -15 -11 -12 -6 4 -7 -1 -3 -11 4 -11 -2 -23 -18 -35 -26 -20 -79
-26 -79 -8 0 5 -4 7 -10 4 -6 -3 -10 5 -10 19 0 14 -5 28 -12 32 -7 4 -8 3 -4
-5 18 -29 -75 -58 -109 -33 -15 10 -16 53 -2 71 9 12 9 13 0 7 -8 -4 -13 -2
-13 8 0 8 5 18 11 22 6 3 9 15 6 25 -6 23 13 102 27 112 8 5 7 9 -2 15 -13 9
-6 88 19 211 l11 53 35 -5 c20 -4 38 -8 41 -11z m742 -21 c0 -53 -28 -97 -70
-110 -21 -6 -19 -2 13 25 33 28 37 37 37 76 0 28 4 43 10 39 6 -3 10 -17 10
-30z m-1540 -15 c37 -20 41 -43 25 -157 -24 -166 -48 -282 -60 -287 -6 -2 -32
-2 -58 1 -55 7 -54 -3 -28 153 35 212 35 212 14 208 -19 -3 -18 2 -56 -242 -9
-55 -20 -102 -26 -105 -5 -3 -33 -4 -61 -2 l-52 3 5 47 c3 25 13 87 22 136 9
50 22 124 29 165 l12 75 53 3 c29 2 58 -2 65 -8 10 -7 21 -6 42 5 34 18 49 19
74 5z m1385 -9 c3 -5 1 -12 -5 -16 -5 -3 -10 1 -10 9 0 18 6 21 15 7z m-3935
-40 c58 -12 131 -29 163 -37 32 -9 66 -17 75 -19 120 -28 280 -77 357 -109
139 -59 182 -82 171 -93 -2 -2 -38 7 -81 22 -42 14 -84 27 -93 29 -9 1 -24 5
-32 9 -178 65 -391 126 -585 166 -105 22 -131 31 -133 45 -4 21 -9 22 158 -13z
m3140 14 c16 -8 34 -24 40 -34 14 -27 13 -68 -2 -75 -10 -5 -10 -7 0 -12 14
-7 16 -72 3 -106 -5 -14 -12 -59 -15 -101 -4 -42 -9 -84 -12 -92 -7 -18 -104
-21 -122 -3 -9 9 -16 7 -31 -6 -14 -13 -28 -16 -56 -10 -54 10 -68 38 -60 119
9 78 36 117 93 136 89 28 102 38 102 81 0 32 -3 39 -17 36 -13 -2 -20 -16 -23
-43 l-5 -40 -54 -3 c-67 -4 -77 5 -61 55 18 60 32 84 60 98 34 19 124 19 160
0z m617 -72 c41 -30 47 -55 40 -157 -10 -129 -30 -206 -63 -237 -30 -28 -127
-33 -169 -9 -44 24 -55 68 -44 171 6 46 11 99 13 117 2 18 6 35 10 39 3 3 6
13 6 22 1 46 85 95 145 84 17 -3 45 -17 62 -30z m201 17 c22 -7 23 -8 6 -9
-11 -1 -29 6 -40 15 -10 8 -13 12 -6 9 8 -4 26 -11 40 -15z m-3983 -11 c116
-27 304 -77 330 -89 20 -8 267 -91 379 -126 74 -24 94 -40 113 -89 15 -42 59
-196 94 -330 11 -44 25 -90 30 -103 21 -53 -4 -132 -41 -132 -7 0 -43 19 -79
43 -36 24 -95 57 -131 74 -36 17 -117 55 -180 85 -63 30 -133 62 -155 70 -22
9 -89 35 -150 58 -60 23 -125 48 -143 56 -18 8 -39 14 -47 14 -8 0 -53 13
-102 29 -48 16 -100 32 -115 35 -31 7 -36 34 -18 90 10 32 48 227 56 285 2 18
7 37 10 42 8 14 51 11 149 -12z m4085 -194 c31 -7 37 -24 24 -72 -5 -19 -11
-22 -48 -17 -109 13 -106 11 -106 54 0 21 5 40 12 42 16 6 78 2 118 -7z
m-4190 -271 c41 -13 82 -24 90 -24 9 0 20 -4 26 -9 5 -5 27 -14 49 -21 22 -6
60 -21 85 -32 25 -11 59 -26 75 -33 17 -8 62 -25 100 -38 39 -14 93 -36 120
-50 28 -13 95 -46 150 -72 141 -67 179 -87 187 -99 4 -6 8 -7 8 -3 0 12 90
-52 90 -64 0 -16 -31 -23 -49 -11 -9 6 -30 19 -48 28 -18 9 -37 22 -44 30 -6
8 -17 14 -25 14 -7 0 -19 6 -26 13 -8 6 -27 19 -43 28 -86 45 -138 70 -210
103 -44 20 -87 41 -95 46 -23 15 -80 39 -140 60 -60 21 -216 77 -295 105 -27
10 -57 20 -65 23 -8 3 -22 6 -32 7 -30 4 -49 15 -43 25 7 11 27 7 135 -26z
m-15 -51 c39 -13 102 -35 140 -49 39 -13 79 -28 90 -33 11 -4 38 -14 60 -21
45 -14 103 -39 189 -81 32 -16 63 -29 69 -29 6 0 18 -6 26 -13 9 -8 41 -24 71
-37 30 -12 86 -42 123 -66 37 -24 69 -44 72 -44 15 0 105 -66 105 -76 0 -8 -9
-23 -20 -34 -11 -11 -35 -44 -52 -73 -18 -28 -36 -56 -41 -62 -5 -5 -30 -46
-56 -90 -45 -74 -51 -80 -80 -78 -17 0 -47 8 -65 17 -56 26 -404 122 -511 140
-55 9 -110 20 -122 24 -13 4 -66 50 -119 102 l-96 95 10 50 c9 44 19 93 64
337 10 57 11 57 42 51 17 -3 63 -16 101 -30z m1720 13 c15 -10 33 -32 40 -49
19 -46 2 -134 -32 -165 -24 -22 -24 -24 -8 -42 15 -16 16 -31 10 -97 -13 -141
-44 -177 -153 -174 -94 3 -163 9 -169 14 -3 3 0 34 6 69 11 67 64 367 76 432
l8 38 97 -4 c71 -3 106 -9 125 -22z m235 10 c0 -7 -3 -28 -6 -45 -6 -28 -10
-31 -45 -31 -34 0 -39 3 -39 23 0 54 10 67 51 67 26 0 39 -4 39 -14z m126 -18
c-3 -13 -6 -33 -6 -45 0 -19 -5 -23 -34 -23 -42 0 -47 6 -39 53 5 35 7 37 45
37 37 0 40 -2 34 -22z m1272 -129 c3 -53 4 -57 27 -55 14 0 25 4 25 7 0 4 18
2 39 -3 58 -15 59 -24 25 -243 -8 -55 -17 -114 -20 -131 -9 -66 -96 -103 -143
-60 -12 11 -21 14 -26 7 -3 -6 -33 -11 -66 -11 l-60 0 6 48 c4 26 11 72 16
102 15 86 19 106 41 250 11 74 22 139 25 143 3 4 28 7 56 5 l52 -3 3 -56z
m-1414 16 c-3 -40 -34 -221 -44 -255 -18 -60 -20 -89 -9 -96 16 -10 32 12 35
48 2 18 12 78 23 133 10 55 22 119 26 143 l7 42 58 0 c32 0 61 -3 63 -7 5 -8
1 -32 -45 -288 -27 -157 -26 -155 -90 -149 -28 2 -55 9 -58 14 -5 7 -17 5 -36
-6 -33 -19 -72 -14 -98 12 -21 20 -20 71 3 196 11 57 25 134 31 171 l12 68 62
-3 c54 -3 61 -5 60 -23z m332 -13 c8 -12 12 -11 23 2 33 39 53 9 39 -59 -17
-81 -18 -85 -38 -85 -36 0 -57 -34 -70 -111 -26 -165 -30 -179 -60 -179 -15 0
-42 3 -59 6 -36 8 -37 13 -17 117 8 40 19 106 26 147 6 41 16 98 21 127 l10
52 42 3 c50 4 68 -1 83 -20z m230 -8 c12 -7 25 -10 29 -6 4 4 31 7 61 7 64 0
63 7 34 -151 -22 -126 -26 -151 -36 -219 -3 -27 -11 -56 -16 -62 -6 -7 -7 -13
-4 -13 4 0 -3 -11 -16 -24 -30 -33 -68 -46 -130 -46 -88 0 -147 45 -127 97 7
19 15 22 60 21 41 -1 53 -5 57 -20 8 -31 39 -22 46 14 7 38 4 43 -22 29 -52
-28 -122 8 -122 62 0 50 37 254 52 284 24 50 79 62 134 27z m1434 1 c14 -1 27
-3 30 -3 3 -1 3 -27 2 -57 l-4 -54 32 9 c82 23 118 -17 105 -117 -4 -32 -9
-74 -10 -93 -9 -110 -26 -195 -43 -211 -23 -21 -63 -34 -71 -23 -3 5 -22 15
-41 22 -29 10 -37 10 -45 -1 -7 -9 -21 -11 -45 -6 -19 4 -38 5 -43 2 -5 -3 -7
21 -4 53 9 101 18 148 30 156 9 6 9 8 0 8 -13 0 -13 1 7 155 6 39 11 89 13
113 3 45 21 66 47 56 8 -4 26 -7 40 -9z m-1058 -9 c19 -8 40 -22 47 -30 17
-21 26 -131 14 -176 l-9 -35 -72 -1 c-40 0 -76 -4 -81 -10 -5 -5 -11 -33 -13
-63 -4 -75 17 -79 32 -7 l11 56 61 0 61 0 -7 -42 c-4 -24 -16 -62 -27 -85 -16
-33 -29 -45 -65 -59 -38 -15 -52 -15 -98 -5 -102 23 -113 67 -70 296 19 101
34 129 82 154 44 24 87 26 134 7z m246 -15 c1 -1 2 -8 2 -16 0 -12 6 -11 31 7
39 29 50 14 37 -50 -6 -26 -10 -54 -10 -62 -1 -22 -18 -40 -38 -40 -35 0 -50
-34 -68 -161 l-17 -124 -54 -3 c-57 -3 -86 11 -76 37 4 9 13 59 21 111 30 211
43 291 50 301 5 8 82 8 122 0z m1441 -35 c24 -3 46 -7 48 -9 2 -2 -4 -39 -12
-83 -9 -43 -18 -99 -20 -124 -3 -25 -8 -58 -11 -75 -4 -16 -8 -44 -9 -62 -4
-52 -9 -54 -92 -44 -9 1 -11 21 -8 69 2 37 7 112 10 167 8 142 16 177 38 170
7 -2 32 -6 56 -9z m-859 -10 c72 -16 97 -87 70 -202 -5 -23 -10 -66 -11 -95
-1 -30 -4 -58 -7 -64 -3 -5 -7 -23 -9 -40 -2 -16 -5 -36 -8 -42 -6 -19 -94 -8
-110 13 -11 16 -12 16 -18 0 -5 -11 -19 -16 -50 -16 -40 0 -46 3 -63 35 -16
30 -17 42 -7 100 6 36 17 72 23 80 7 8 38 22 69 32 70 21 71 21 82 73 8 33 7
45 -3 51 -20 13 -28 10 -28 -11 0 -10 -8 -24 -17 -29 -15 -9 -16 -12 -4 -20 7
-5 11 -13 8 -18 -5 -8 -29 -9 -95 -4 -9 1 -11 11 -7 39 9 51 37 103 52 97 7
-2 13 3 13 11 0 10 6 14 15 11 8 -4 17 -1 21 4 6 10 24 9 84 -5z m661 -77 c44
-31 52 -72 39 -204 -13 -128 -25 -168 -64 -204 -23 -22 -35 -25 -94 -24 -65 1
-68 3 -101 40 -32 37 -33 40 -27 103 7 79 14 145 20 185 3 17 5 35 5 42 2 23
53 73 84 81 46 12 107 4 138 -19z m185 -384 c1 -51 -10 -65 -51 -65 -57 0 -65
7 -65 61 l0 49 58 -3 57 -2 1 -40z m-4396 -10 c36 -9 93 -22 127 -30 34 -7 71
-19 82 -25 11 -5 33 -12 48 -14 15 -3 69 -18 118 -36 50 -17 105 -35 123 -41
17 -5 32 -14 32 -20 0 -15 -29 -23 -43 -12 -6 6 -46 22 -87 36 -41 14 -103 37
-137 51 -35 13 -63 23 -63 21 0 -3 -12 0 -27 7 -35 13 -182 47 -243 54 -51 7
-55 8 -45 23 3 6 16 9 28 6 12 -2 51 -12 87 -20z m-13 -50 c57 -9 225 -55 256
-70 18 -9 79 -32 137 -51 58 -19 108 -39 113 -43 8 -8 -40 -103 -55 -109 -4
-2 -8 -10 -8 -17 0 -16 -51 -95 -61 -95 -9 0 -142 120 -147 132 -2 4 -49 47
-105 95 -108 93 -177 158 -177 168 0 3 4 3 10 0 5 -3 22 -8 37 -10z"/>
<path d="M5340 13334 c-136 -24 -151 -50 -26 -46 339 9 583 3 791 -19 166 -18
180 -19 215 -29 116 -31 284 -70 287 -67 2 2 -18 12 -44 22 -27 10 -50 21 -53
24 -15 18 -215 67 -315 76 -38 4 -76 8 -85 10 -8 1 -44 6 -80 10 -36 4 -78 9
-95 12 -41 6 -564 13 -595 7z"/>
<path d="M5745 13088 c-159 -21 -167 -51 -12 -45 117 4 241 -8 385 -38 46 -9
86 -14 90 -11 18 19 -64 50 -208 80 -98 19 -181 24 -255 14z"/>
<path d="M4735 12981 c-52 -13 -94 -40 -110 -71 -14 -26 -14 -30 -1 -30 9 0
37 14 63 30 26 17 59 30 74 30 32 0 59 9 59 19 0 7 -47 33 -53 30 -1 -1 -15
-4 -32 -8z"/>
<path d="M6993 12860 c-38 -23 -43 -35 -11 -27 11 3 37 -1 56 -9 19 -7 47 -14
62 -14 44 0 134 -41 223 -102 52 -36 26 23 -36 81 -71 66 -124 91 -197 91 -47
0 -74 -5 -97 -20z"/>
<path d="M4827 12775 c-48 -17 -84 -50 -103 -94 -8 -18 -14 -35 -14 -37 0 -11
29 -2 41 12 27 32 89 64 161 82 69 17 72 19 49 31 -35 19 -91 22 -134 6z"/>
<path d="M7400 12469 c0 -5 4 -9 9 -9 5 0 32 -21 60 -46 29 -26 54 -44 57 -42
10 10 -16 57 -39 73 -33 21 -87 36 -87 24z"/>
<path d="M7190 12430 c-13 -8 -13 -9 0 -13 102 -31 147 -56 213 -116 42 -40
45 -36 18 17 -24 46 -71 82 -136 104 -59 20 -75 21 -95 8z"/>
<path d="M3897 12143 c-14 -16 -40 -59 -58 -96 -25 -54 -32 -85 -36 -155 -3
-48 -2 -84 2 -80 4 4 17 35 29 70 23 67 103 198 122 198 11 0 63 -52 100 -102
14 -19 24 -52 29 -95 6 -58 4 -72 -18 -117 -40 -81 -60 -129 -64 -156 -8 -43
-4 -166 6 -191 8 -23 9 -22 20 16 6 22 11 45 11 51 0 18 50 103 68 117 10 6
23 24 31 38 12 24 10 46 -13 175 -26 141 -29 150 -64 188 -21 23 -57 69 -81
104 -24 34 -47 62 -51 62 -3 0 -18 -12 -33 -27z"/>
<path d="M7988 11989 c-16 -9 -16 -12 2 -44 11 -20 19 -39 19 -43 -3 -21 2
-42 11 -42 14 0 12 79 -3 112 -10 22 -15 25 -29 17z"/>
<path d="M7920 11949 c-14 -11 -35 -29 -47 -40 -13 -10 -54 -35 -91 -55 l-69
-36 -6 -81 c-3 -45 -10 -102 -16 -127 -6 -25 -18 -70 -25 -100 -8 -30 -17 -64
-22 -75 -7 -18 -6 -19 9 -6 21 17 19 19 50 -54 22 -52 25 -74 24 -158 -1 -53
1 -97 4 -97 18 0 50 107 56 189 7 101 -5 161 -45 225 -23 38 -24 43 -12 89 7
27 13 81 14 120 l2 72 51 30 c71 42 103 65 136 97 33 32 24 37 -13 7z"/>
<path d="M3827 11723 c-13 -13 -7 -91 14 -169 11 -44 26 -101 34 -129 16 -63
54 -150 61 -142 3 3 -4 38 -16 79 -12 40 -28 98 -36 128 -7 30 -18 73 -23 95
-6 22 -11 58 -11 80 0 42 -12 70 -23 58z"/>
<path d="M8016 11640 c-8 -110 -30 -208 -57 -264 -57 -114 -42 -111 21 4 56
101 73 166 64 255 -10 106 -20 108 -28 5z"/>
<path d="M5654 11656 c-4 -10 -2 -22 4 -28 8 -8 13 -7 18 6 4 10 2 22 -4 28
-8 8 -13 7 -18 -6z"/>
<path d="M5590 11480 c0 -22 5 -40 10 -40 6 0 10 18 10 40 0 22 -4 40 -10 40
-5 0 -10 -18 -10 -40z"/>
<path d="M5542 11450 c0 -14 2 -19 5 -12 2 6 2 18 0 25 -3 6 -5 1 -5 -13z"/>
<path d="M6201 11413 c-14 -47 -14 -63 -1 -63 9 0 13 12 25 72 7 36 -14 27
-24 -9z"/>
<path d="M6120 11420 c0 -11 5 -20 10 -20 6 0 10 9 10 20 0 11 -4 20 -10 20
-5 0 -10 -9 -10 -20z"/>
<path d="M5340 11043 c-49 -42 -85 -110 -68 -130 7 -8 16 -10 27 -4 13 8 20 3
31 -22 16 -37 48 -66 73 -67 26 0 21 13 -19 50 -35 32 -36 35 -31 87 3 29 15
69 27 88 28 45 15 44 -40 -2z"/>
<path d="M6454 10990 c20 -70 19 -97 -8 -142 -14 -25 -35 -53 -46 -63 -26 -24
-25 -35 3 -35 47 1 87 54 87 115 0 35 1 36 30 30 17 -4 30 -3 30 2 0 18 -42
69 -85 103 -17 14 -18 13 -11 -10z"/>
<path d="M5010 10844 c-30 -20 -71 -51 -90 -69 -19 -18 -52 -44 -74 -58 -69
-46 -177 -158 -197 -204 -23 -53 -24 -84 -5 -138 17 -49 49 -56 54 -12 2 15 7
27 11 27 4 0 16 6 27 14 19 15 19 15 -1 30 -17 12 -18 17 -6 28 10 10 15 10
18 1 7 -19 33 -3 33 21 0 11 7 29 15 39 7 11 11 25 8 33 -13 33 127 198 235
276 39 29 53 48 34 48 -4 0 -32 -16 -62 -36z"/>
<path d="M5519 10813 c-33 -5 -63 -37 -56 -58 5 -11 21 -15 64 -15 43 0 69 -7
100 -24 24 -14 45 -21 47 -17 10 15 -46 81 -84 101 -22 11 -41 19 -42 19 -2
-1 -15 -4 -29 -6z"/>
<path d="M6629 10803 c6 -10 27 -36 47 -58 20 -22 55 -67 77 -100 23 -33 49
-69 59 -80 11 -11 14 -21 8 -23 -12 -4 -14 -42 -1 -42 5 0 14 -13 21 -30 7
-16 23 -36 36 -45 24 -16 32 -49 14 -60 -17 -11 -11 -23 13 -27 17 -2 22 -10
22 -32 0 -50 39 -43 50 9 18 92 20 85 -50 182 -94 130 -343 387 -296 306z"/>
<path d="M6191 10771 c-14 -4 -40 -28 -58 -54 l-33 -47 25 0 c13 0 40 14 58
30 26 23 44 30 75 30 47 0 64 17 37 37 -20 14 -63 16 -104 4z"/>
<path d="M6006 10711 c-10 -11 -30 -24 -46 -31 -30 -13 -162 -10 -195 4 -19 8
-19 8 1 -14 25 -26 91 -41 159 -35 51 4 131 41 140 63 13 34 -31 44 -59 13z"/>
<path d="M7165 10482 c0 -60 -8 -152 -19 -210 -19 -107 -16 -147 5 -70 6 23
22 71 36 105 29 78 44 154 37 192 -3 15 -18 42 -32 59 l-27 31 0 -107z"/>
<path d="M4875 10408 c-8 -29 -12 -109 -5 -113 17 -10 40 8 52 41 7 20 19 34
28 34 41 0 115 -35 144 -68 17 -20 39 -43 49 -51 10 -9 38 -45 61 -81 24 -36
58 -83 77 -104 43 -50 148 -117 219 -141 30 -11 59 -23 65 -27 5 -4 17 -8 26
-8 10 0 30 -5 46 -11 15 -6 30 -11 33 -11 3 0 25 -7 50 -14 136 -40 388 -15
482 48 14 10 30 18 36 18 5 0 20 13 33 29 29 34 158 141 171 141 16 0 85 74
121 131 l36 57 51 -1 c38 -1 50 -4 50 -16 1 -16 28 -58 32 -50 17 27 28 51 28
60 0 33 -75 55 -132 38 -44 -13 -250 -18 -688 -18 -201 0 -390 -1 -420 -1
-102 -1 -325 38 -432 76 -57 20 -107 40 -112 45 -15 14 -96 11 -101 -3z m459
-132 c52 -10 150 -15 312 -16 130 0 240 -2 244 -5 20 -12 418 -4 539 11 l44 6
-6 -68 c-4 -37 -12 -74 -19 -80 -19 -19 -322 -39 -571 -39 -188 0 -229 3 -362
28 -177 32 -253 54 -264 76 -5 9 -11 35 -15 59 -6 49 -10 48 98 28z m49 -181
c12 -2 36 -6 52 -9 96 -14 122 -20 136 -32 34 -30 116 -45 276 -52 182 -8 270
2 326 37 34 21 167 42 167 27 0 -14 -157 -120 -209 -141 -73 -30 -214 -55
-309 -55 -86 0 -286 47 -359 84 -49 25 -86 59 -116 108 -21 34 -22 52 -1 44 9
-3 26 -8 37 -11z"/>
<path d="M4700 10290 c0 -16 4 -30 9 -30 12 0 24 37 16 50 -12 20 -25 10 -25
-20z"/>
<path d="M6890 10261 c-13 -26 -13 -31 4 -31 11 0 13 -10 9 -42 l-5 -43 21 25
c25 30 27 60 5 60 -12 0 -15 6 -10 25 8 30 -9 33 -24 6z"/>
<path d="M4716 10224 c-3 -8 -1 -25 6 -37 l11 -22 10 22 c10 23 4 53 -12 53
-5 0 -12 -7 -15 -16z"/>
<path d="M6865 10100 c-3 -5 -3 -15 1 -21 6 -11 23 6 24 24 0 10 -18 9 -25 -3z"/>
<path d="M6380 9993 c-34 -24 -57 -38 -110 -67 -25 -13 -54 -32 -65 -41 -19
-16 -18 -16 20 -10 43 7 134 57 167 92 28 30 20 50 -12 26z"/>
<path d="M4860 9954 c0 -44 78 -299 113 -371 20 -42 44 -60 33 -25 -5 14 -26
120 -43 212 -5 30 -36 131 -55 178 -16 40 -48 45 -48 6z"/>
<path d="M5360 9943 c0 -26 176 -101 270 -116 l35 -6 -35 16 c-19 8 -66 24
-104 35 -38 10 -88 32 -112 48 -44 31 -54 35 -54 23z"/>
<path d="M6659 9818 c-96 -190 -107 -213 -102 -218 7 -7 75 78 107 134 29 52
86 182 86 197 0 5 -6 9 -14 9 -8 0 -41 -53 -77 -122z"/>
<path d="M6075 9701 c-6 -5 -54 -17 -108 -26 -103 -18 -179 -16 -242 6 -74 27
-66 -28 10 -69 66 -35 228 -16 345 41 51 25 66 57 28 57 -13 0 -28 -4 -33 -9z"/>
<path d="M7146 7641 c-3 -5 -9 -31 -13 -57 -5 -37 -3 -46 8 -42 17 5 38 45 41
79 3 24 -24 39 -36 20z"/>
<path d="M7101 7400 c-13 -60 -14 -90 -3 -90 19 1 30 19 37 60 3 25 9 53 11
63 4 12 0 17 -14 17 -16 0 -23 -10 -31 -50z"/>
<path d="M8405 7453 c-3 -32 -10 -85 -15 -119 -13 -81 -13 -111 0 -98 13 13
50 242 43 261 -11 28 -22 10 -28 -44z"/>
<path d="M9616 7663 c-11 -12 9 -33 31 -33 18 0 24 5 21 18 -3 15 -40 26 -52
15z"/>
<path d="M7423 7363 c-17 -35 -17 -96 -1 -91 10 4 37 83 38 111 0 18 -26 4
-37 -20z"/>
<path d="M9025 7462 c-4 -9 -9 -37 -11 -62 -3 -25 -8 -81 -13 -125 -9 -84 -8
-95 13 -95 13 0 33 100 42 216 4 57 2 73 -10 77 -8 3 -17 -2 -21 -11z"/>
<path d="M8905 7300 c-3 -5 -2 -10 4 -10 5 0 13 5 16 10 3 6 2 10 -4 10 -5 0
-13 -4 -16 -10z"/>
<path d="M9110 7250 c0 -5 5 -10 10 -10 6 0 10 5 10 10 0 6 -4 10 -10 10 -5 0
-10 -4 -10 -10z"/>
<path d="M8700 7315 c-17 -20 -26 -105 -12 -105 16 0 28 27 36 78 6 43 -2 53
-24 27z"/>
<path d="M9336 7435 c-8 -8 -17 -37 -21 -63 -12 -96 -27 -196 -32 -210 -4 -10
1 -13 18 -10 21 3 25 11 36 68 14 76 27 230 20 230 -3 0 -12 -7 -21 -15z"/>
<path d="M7130 6893 c0 -10 -3 -35 -6 -55 -6 -33 -4 -36 14 -32 13 4 22 17 26
42 9 56 8 62 -14 62 -12 0 -20 -7 -20 -17z"/>
<path d="M7097 6688 c-8 -18 -16 -52 -19 -75 -5 -37 -3 -43 12 -43 22 0 28 15
36 85 8 63 -9 82 -29 33z"/>
<path d="M8867 6743 c-3 -4 -8 -30 -12 -58 -3 -27 -10 -68 -15 -90 -5 -22 -11
-66 -14 -98 -3 -49 -2 -58 12 -55 21 4 31 45 48 198 2 25 7 55 9 66 5 22 -19
52 -28 37z"/>
<path d="M8005 6779 c-4 -5 -8 -20 -10 -32 -1 -12 -8 -57 -14 -101 -8 -51 -9
-82 -3 -88 6 -6 12 -6 16 0 9 15 36 163 36 200 0 31 -12 42 -25 21z"/>
<path d="M9482 6673 c-12 -21 -20 -66 -26 -138 -3 -27 -8 -71 -11 -96 -5 -32
-4 -49 5 -54 17 -10 26 8 36 69 4 28 9 60 12 71 2 11 6 49 9 84 5 67 -7 98
-25 64z"/>
<path d="M8326 6753 c-3 -3 -6 -20 -6 -36 0 -25 2 -28 15 -17 8 7 15 21 15 31
0 19 -13 32 -24 22z"/>
<path d="M9141 6518 c-4 -13 -11 -39 -15 -59 -5 -29 -3 -38 10 -43 20 -8 34 9
34 40 0 12 3 36 6 53 5 25 3 31 -10 31 -9 0 -20 -10 -25 -22z"/>
<path d="M9800 6644 c-8 -9 -15 -21 -16 -28 -13 -89 -26 -257 -21 -263 18 -18
36 27 42 102 3 44 9 105 14 135 10 59 2 81 -19 54z"/>
</g>
</svg>
